<mxfile host="app.diagrams.net" modified="2023-06-10T12:17:51.917Z" agent="Mozilla/5.0 (Windows NT 10.0; Win64; x64) AppleWebKit/537.36 (KHTML, like Gecko) Chrome/114.0.0.0 Safari/537.36" etag="qmZzRKKS8nzUirVZu4gh" version="21.3.8" type="device">
  <diagram name="Page-1" id="-33OuNBQVovk3ffSEzoA">
    <mxGraphModel dx="1221" dy="654" grid="1" gridSize="10" guides="1" tooltips="1" connect="1" arrows="1" fold="1" page="1" pageScale="1" pageWidth="1169" pageHeight="827" math="0" shadow="0">
      <root>
        <mxCell id="0" />
        <mxCell id="1" parent="0" />
        <mxCell id="eG3yXtQbkOg707tIaiyc-1" value="" style="shape=image;html=1;verticalAlign=top;verticalLabelPosition=bottom;labelBackgroundColor=#ffffff;imageAspect=0;aspect=fixed;image=https://cdn1.iconfinder.com/data/icons/user-pictures/100/female1-128.png" vertex="1" parent="1">
          <mxGeometry x="240" y="360" width="128" height="128" as="geometry" />
        </mxCell>
      </root>
    </mxGraphModel>
  </diagram>
</mxfile>
